<?xml version="1.0" encoding="UTF-8"?>
<svg id="expanded" xmlns="http://www.w3.org/2000/svg" version="1.1" viewBox="0 0 155.01 41.51">
  <!-- Generator: Adobe Illustrator 29.6.1, SVG Export Plug-In . SVG Version: 2.1.1 Build 9)  -->
  <defs>
    <style>
      .st0 {
        fill: #ec232a;
      }
    </style>
  </defs>
  <path class="st0" d="M9.38,13.4v14.94h2.41v.5H2.57v-.5h2.41v-14.44h-2.41v-.5h6.81ZM5.38,3.86c.5-.5,1.1-.76,1.8-.76s1.3.25,1.8.76.76,1.1.76,1.8-.25,1.3-.76,1.8-1.1.76-1.8.76-1.3-.25-1.8-.76-.76-1.1-.76-1.8.25-1.3.76-1.8Z"/>
  <path class="st0" d="M21.72,13.4v2.56h.07c.14-.24.34-.52.58-.85.24-.32.56-.64.95-.94.4-.3.88-.56,1.44-.77.56-.22,1.24-.32,2.03-.32.84,0,1.54.09,2.11.27.56.18,1.03.41,1.4.68.37.28.67.58.9.92s.44.67.63,1.01c.36-.65.76-1.16,1.21-1.53.44-.37.89-.66,1.35-.86s.89-.33,1.3-.4c.41-.06.74-.09,1.01-.09,1.37,0,2.42.2,3.17.61s1.28.89,1.62,1.46c.34.56.53,1.16.59,1.78.06.62.09,1.15.09,1.58v9.83h2.38v.5h-8.89v-.5h2.12v-11.16c0-1.01-.19-1.78-.56-2.32-.37-.54-.99-.81-1.85-.81-.26,0-.59.07-.97.22-.38.14-.76.36-1.12.65s-.67.67-.92,1.13-.38,1.03-.38,1.67v10.62h2.12v.5h-8.68v-.5h2.16v-11.45c0-1.06-.23-1.79-.68-2.21-.46-.42-.96-.63-1.51-.63-.96,0-1.8.42-2.52,1.26-.19.24-.36.49-.5.74s-.26.54-.34.86-.14.7-.18,1.12-.05.93-.05,1.53v8.78h2.12v.5h-8.89v-.5h2.38v-14.44h-2.38v-.5h6.7-.01Z"/>
  <path class="st0" d="M47.53,13.91v-.5h6.7v2.66h.07c.74-2.11,2.16-3.17,4.25-3.17,1.39,0,2.58.27,3.56.81.98.54,1.79,1.22,2.43,2.03.64.82,1.1,1.7,1.4,2.66.3.96.45,1.86.45,2.7,0,1.08-.19,2.11-.58,3.1s-.92,1.85-1.6,2.61-1.51,1.36-2.47,1.82-2.03.68-3.2.68c-1.1,0-1.99-.3-2.66-.9s-1.18-1.32-1.51-2.16h-.07v12.13h2.45v.5h-9.22v-.5h2.38V13.9h-2.38,0ZM54.39,23.61c.06.9.23,1.74.52,2.52.29.78.71,1.43,1.28,1.94.56.52,1.35.77,2.36.77.67,0,1.21-.18,1.6-.54.4-.36.7-.88.9-1.55s.34-1.48.4-2.43c.06-.95.09-2.01.09-3.19,0-1.44-.05-2.66-.16-3.65-.11-1-.29-1.79-.56-2.39-.26-.6-.6-1.03-1.01-1.3-.41-.26-.92-.4-1.55-.4-.89,0-1.6.25-2.12.76-.53.5-.92,1.14-1.19,1.91-.26.77-.44,1.61-.52,2.52s-.13,1.76-.13,2.56c0,.74.03,1.57.09,2.47h0Z"/>
  <path class="st0" d="M76.8,13.4v3.02h.07c.43-.91,1.01-1.7,1.75-2.36s1.7-.99,2.9-.99c1.01,0,1.82.27,2.45.81s.94,1.29.94,2.25c0,.72-.17,1.28-.52,1.69s-.91.61-1.67.61c-.55,0-1.06-.11-1.51-.34-.46-.23-.68-.65-.68-1.28,0-.07,0-.2.04-.38.02-.18.05-.37.09-.58.04-.2.07-.39.09-.56.02-.17.04-.26.04-.29-.02-.19-.06-.34-.11-.45s-.13-.2-.23-.29c-.11-.08-.27-.13-.49-.13-.24,0-.54.11-.9.34-.36.23-.7.56-1.01.99s-.58.95-.81,1.57c-.23.61-.34,1.3-.34,2.07v9.22h2.84v.5h-9.58v-.5h2.34v-14.44h-2.34v-.5h6.66l-.02.02Z"/>
  <path class="st0" d="M91.67,21.43c0,.86.04,1.73.11,2.61s.26,1.67.58,2.38c.31.71.77,1.29,1.37,1.75.6.46,1.44.68,2.52.68.96,0,1.77-.18,2.43-.54.66-.36,1.2-.77,1.62-1.24s.73-.93.94-1.39c.2-.46.32-.79.34-1.01l.5.18c-.12.46-.32.94-.61,1.46s-.68,1-1.19,1.44-1.13.82-1.87,1.12-1.64.45-2.7.45c-1.25,0-2.41-.19-3.49-.56s-2.02-.91-2.83-1.62c-.8-.71-1.43-1.57-1.89-2.59s-.68-2.18-.68-3.47c0-1.03.22-2.04.65-3.02.43-.98,1.03-1.85,1.78-2.61.76-.76,1.64-1.37,2.66-1.84,1.02-.47,2.12-.7,3.29-.7.84,0,1.68.13,2.52.4.84.26,1.6.67,2.27,1.22s1.22,1.27,1.66,2.14.65,1.93.65,3.15h-10.62v1.62h0ZM97.43,16.89c0-.26,0-.59-.04-.97-.02-.38-.11-.77-.25-1.15-.14-.38-.38-.71-.7-.97-.32-.26-.77-.4-1.35-.4-.82,0-1.45.19-1.89.58-.44.38-.77.87-.99,1.46s-.35,1.22-.41,1.91c-.06.68-.1,1.34-.13,1.96h5.76v-2.41h0Z"/>
  <path class="st0" d="M113.38,15.81c-.7-.02-1.38-.05-2.05-.07s-1.28-.04-1.84-.05c-.55-.01-.92-.02-1.12-.02-.41,0-.71.07-.9.22-.19.14-.34.38-.43.72l-.18.68-.5-.11c.07-.22.15-.49.23-.81s.17-.65.25-.99.16-.65.23-.94c.07-.29.13-.49.18-.61.07-.19.16-.34.27-.43.11-.1.31-.14.59-.14.34,0,.93.01,1.78.04.85.02,1.75.05,2.7.09s1.84.07,2.68.11,1.4.05,1.69.05c.24,0,.43-.05.58-.16.14-.11.26-.22.36-.34l.36.29-11.16,12.42c.77,0,1.67.08,2.72.25s1.97.47,2.79.9l1.76.86c.77.36,1.43.54,1.98.54.36,0,.63-.1.81-.31.18-.2.27-.44.27-.7,0-.22-.05-.4-.16-.54s-.27-.31-.49-.5c-.24-.19-.5-.41-.77-.67-.28-.25-.41-.62-.41-1.1,0-.43.16-.74.47-.94.31-.19.64-.29.97-.29.58,0,.99.19,1.24.56.25.37.38.87.38,1.49,0,.74-.12,1.37-.36,1.87s-.56.91-.95,1.22c-.4.31-.86.53-1.39.67-.53.13-1.09.2-1.69.2-.38,0-.85-.05-1.39-.16s-1.13-.23-1.78-.38l-1.73-.43c-.41-.12-.83-.2-1.26-.25s-.92-.07-1.48-.07c-.65,0-1.19.15-1.64.45-.44.3-.79.58-1.03.85l-.43-.32,11.63-13.07c-.5-.02-1.1-.05-1.8-.07h.02Z"/>
  <path class="st0" d="M130.12,13.4v14.94h2.41v.5h-9.22v-.5h2.41v-14.44h-2.41v-.5h6.81ZM126.12,3.86c.5-.5,1.1-.76,1.8-.76s1.3.25,1.8.76.76,1.1.76,1.8-.25,1.3-.76,1.8-1.1.76-1.8.76-1.3-.25-1.8-.76-.76-1.1-.76-1.8.25-1.3.76-1.8Z"/>
  <path class="st0" d="M151.05,29.17c-.64.1-1.23.14-1.78.14-1.22,0-2.13-.22-2.72-.65s-.95-1.03-1.1-1.8h-.07c-.38.96-.91,1.61-1.58,1.94-.67.34-1.64.5-2.92.5-.58,0-1.17-.06-1.76-.18s-1.15-.31-1.66-.58c-.5-.26-.91-.63-1.22-1.1s-.47-1.04-.47-1.71.14-1.28.41-1.75c.28-.47.64-.86,1.08-1.19.44-.32.95-.59,1.51-.79.56-.2,1.15-.4,1.75-.59.98-.29,1.78-.53,2.39-.74.61-.2,1.08-.42,1.42-.65s.57-.49.7-.77c.13-.29.2-.66.2-1.12v-2.2c0-.65-.16-1.24-.47-1.76-.31-.53-.9-.79-1.76-.79-.55,0-1.03.13-1.44.38s-.61.71-.61,1.39c0,.07,0,.2.04.38.02.18.05.38.07.59.02.22.05.42.07.61s.04.32.04.4c0,.36-.08.64-.25.85-.17.2-.37.35-.59.45s-.47.15-.72.16-.46.02-.63.02c-.24,0-.49-.02-.74-.05-.25-.04-.47-.12-.67-.25s-.35-.32-.49-.56c-.13-.24-.2-.56-.2-.97,0-.62.17-1.18.52-1.67s.81-.9,1.39-1.22,1.23-.57,1.96-.74c.73-.17,1.49-.25,2.29-.25.91,0,1.77.07,2.57.22.8.14,1.5.41,2.09.79s1.06.91,1.4,1.57c.35.66.52,1.49.52,2.5v8.93c0,.46.07.86.2,1.21s.46.52.99.52c.31,0,.57-.06.77-.18s.4-.29.59-.5l.32.32c-.34.5-.82.8-1.46.9h.02ZM145.17,19.92c-.05.14-.14.28-.27.41s-.37.28-.7.45c-.46.22-.91.43-1.37.63s-.86.46-1.22.77-.65.7-.88,1.15c-.23.46-.34,1.04-.34,1.76,0,.29.02.62.05,1.01s.13.76.29,1.12c.16.36.39.67.7.92s.74.38,1.3.38c.31,0,.62-.07.92-.22.3-.14.57-.37.81-.67.24-.3.43-.7.58-1.19.14-.49.22-1.09.22-1.78v-4.75h-.09Z"/>
</svg>